<svg t="1664374040296" class="icon" viewBox="0 0 1024 1024" version="1.1" xmlns="http://www.w3.org/2000/svg" p-id="12489" width="200" height="200"><path d="M512 892.342857c-165.790476 0-312.07619-107.27619-360.838095-263.314286l-39.009524-121.904761L0 760.685714l87.771429 39.009524 14.628571-34.133333c87.771429 136.533333 238.933333 224.304762 404.72381 224.304762 234.057143 0 438.857143-175.542857 472.990476-409.6l-97.52381-14.628572c-19.504762 185.295238-185.295238 326.704762-370.590476 326.704762zM512 131.657143c165.790476 0 312.07619 107.27619 360.838095 263.314286l39.009524 121.904761L1024 263.314286l-87.771429-39.009524-14.628571 34.133333C833.828571 121.904762 682.666667 34.133333 516.87619 34.133333 282.819048 34.133333 82.895238 199.92381 43.885714 433.980952l97.52381 14.628572c24.380952-185.295238 185.295238-316.952381 370.590476-316.952381z" p-id="12490" fill="#2c2c2c"></path><path d="M687.542857 526.628571v-97.523809h-87.771428l73.142857-126.780952-82.895238-48.761905-78.019048 131.657143-78.019048-131.657143-82.895238 48.761905 73.142857 126.780952H336.457143v97.523809h126.780952v43.885715H336.457143v97.523809h126.780952v131.657143h97.52381v-131.657143h126.780952v-97.523809h-126.780952v-43.885715z" p-id="12491" fill="#2c2c2c"></path></svg>